<?xml version="1.0" standalone="no"?><!DOCTYPE svg PUBLIC "-//W3C//DTD SVG 1.1//EN" "http://www.w3.org/Graphics/SVG/1.1/DTD/svg11.dtd"><svg t="1766062742875" class="icon" viewBox="0 0 1024 1024" version="1.1" xmlns="http://www.w3.org/2000/svg" p-id="7841" xmlns:xlink="http://www.w3.org/1999/xlink" width="64" height="64"><path d="M35.680206 74.04607h59.455711c4.133935 0 7.416766 3.282831 7.416766 7.416765s-3.282831 7.416766-7.416766 7.416766h-59.455711c-4.133935 0-7.416766-3.282831-7.416766-7.416766s3.404417-7.416766 7.416766-7.416765z m0 0" fill="#DCDBDB" p-id="7842"></path><path d="M65.468855 44.257421c4.133935 0 7.416766 3.282831 7.416765 7.416766v59.455711c0 4.133935-3.282831 7.416766-7.416765 7.416766-4.133935 0-7.416766-3.282831-7.416766-7.416766V51.674187c0-4.133935 3.404417-7.416766 7.416766-7.416766z m0 0M362.017893 112.71052l28.694372 7.659938c4.012349 1.094277 6.322489 5.106626 5.228211 9.118974-1.094277 4.012349-5.106626 6.322489-9.118974 5.228212l-28.694372-7.659938c-4.012349-1.094277-6.322489-5.106626-5.228211-9.118974 1.094277-4.012349 5.106626-6.322489 9.118974-5.228212z m0 0" fill="#DCDBDB" p-id="7843"></path><path d="M414.907943 70.884825l7.659938 28.694372c1.094277 4.012349-1.215863 8.024697-5.228212 9.118974-4.012349 1.094277-8.024697-1.215863-9.118974-5.228211l-7.659938-28.815959c-1.094277-4.012349 1.215863-8.024697 5.228212-9.118974 3.890762-0.972691 8.024697 1.459036 9.118974 5.349798z m0 0M477.403312 95.810021l-21.034434 21.034434c-2.918072 2.918072-7.538352 2.918072-10.456423 0-2.918072-2.918072-2.918072-7.538352 0-10.456424l21.034433-21.034433c2.918072-2.918072 7.538352-2.918072 10.456424 0 2.918072 2.918072 2.918072 7.538352 0 10.456423z m0 0" fill="#EAEAEA" p-id="7844"></path><path d="M926.66477 109.792448c-24.560437 0-44.500594 19.940157-44.500594 44.62218 0 24.560437 19.940157 44.500594 44.500594 44.500594 24.560437 0 44.62218-19.940157 44.62218-44.500594 0-24.682023-19.940157-44.62218-44.62218-44.62218z m0 74.289243c-16.414153 0-29.788649-13.374495-29.788649-29.788649s13.374495-29.788649 29.788649-29.788649 29.788649 13.374495 29.788649 29.788649c-0.121586 16.414153-13.374495 29.788649-29.788649 29.788649z m0 0" fill="#DCDBDB" p-id="7845"></path><path d="M905.387164 371.324626l-445.978628-59.455711V547.503206l445.978628 46.810734V371.324626z m0 0" fill="#EAEAEA" p-id="7846"></path><path d="M102.674269 388.954643l356.734267-77.085728v267.611493l-356.734267 77.085728V388.954643z m0 0" fill="#DCDBDB" p-id="7847"></path><path d="M518.864248 478.199003l386.522916-106.874377v505.434339l-386.522916 106.874376V478.199003z m0 0" fill="#EAEAEA" p-id="7848"></path><path d="M102.674269 388.954643L518.864248 478.199003v502.637853l-416.189979-101.281406V388.954643z m0 0" fill="#DCDBDB" p-id="7849"></path><path d="M518.864248 477.469485l-416.189979-88.393256-89.24436 178.367134 431.145096 101.281405 74.289243-191.255283z m0 0" fill="#EAEAEA" p-id="7850"></path><path d="M756.44392 24.80361L711.700154 42.919972v59.455711L756.44392 84.259321V24.80361z m0 0" fill="#EAEAEA" p-id="7851"></path><path d="M659.661208 84.259321l44.62218 18.116362V42.919972l-44.62218-18.116362V84.259321z m96.782712-65.413441L708.538909 0l-48.877701 16.900499 48.756115 20.669674 48.026597-18.724293z m0 0" fill="#DCDBDB" p-id="7852"></path><path d="M518.864248 478.199003l386.522916-106.874377 104.077891 178.367134L637.77567 671.521254l-118.911422-193.322251z m0 0M727.992721 384.577535s16.53574-104.321064 102.862028-156.238423c0 0 7.538352 8.511043 22.615055 27.843267 0 0-39.272382-6.322489-125.477083 128.395156z m0 0" fill="#DCDBDB" p-id="7853"></path><path d="M518.864248 380.200427s1.702209-57.145571 43.527903-186.027072c0 0 7.538352 8.511043 22.615055 27.843268-0.121586 0.121586-15.806222 13.739254-66.142958 158.183804z m0 0" fill="#EAEAEA" p-id="7854"></path><path d="M373.568593 369.987176S326.514687 231.621943 211.250854 169.24816c0 0-19.210639 26.992163-40.366659 35.503205-0.121586-0.121586 132.52909 46.081216 202.684398 165.235811z m0 0" fill="#DCDBDB" p-id="7855"></path></svg>