<?xml version="1.0" standalone="no"?><!DOCTYPE svg PUBLIC "-//W3C//DTD SVG 1.1//EN" "http://www.w3.org/Graphics/SVG/1.1/DTD/svg11.dtd"><svg t="1766152106890" class="icon" viewBox="0 0 1024 1024" version="1.1" xmlns="http://www.w3.org/2000/svg" p-id="7618" xmlns:xlink="http://www.w3.org/1999/xlink" width="200" height="200"><path d="M853.333333 21.333333H170.666667C123.733333 21.333333 85.333333 59.733333 85.333333 106.666667v810.666666c0 46.933333 38.4 85.333333 85.333334 85.333334h682.666666c46.933333 0 85.333333-38.4 85.333334-85.333334V106.666667c0-46.933333-38.4-85.333333-85.333334-85.333334zM170.666667 106.666667h85.333333v810.666666H170.666667V106.666667z m682.666666 810.666666H341.333333V106.666667h512v810.666666z" fill="#999999" p-id="7619"></path><path d="M725.333333 512c23.466667 0 42.666667-19.2 42.666667-42.666667s-19.2-42.666667-42.666667-42.666666h-68.266666l98.133333-98.133334c17.066667-17.066667 17.066667-42.666667 0-59.733333-17.066667-17.066667-42.666667-17.066667-59.733333 0L597.333333 366.933333l-98.133333-98.133333c-17.066667-17.066667-42.666667-17.066667-59.733333 0-17.066667 17.066667-17.066667 42.666667 0 59.733333l98.133333 98.133334H469.333333c-23.466667 0-42.666667 19.2-42.666666 42.666666s19.2 42.666667 42.666666 42.666667h85.333334v64h-85.333334c-23.466667 0-42.666667 19.2-42.666666 42.666667s19.2 42.666667 42.666666 42.666666h85.333334v85.333334c0 23.466667 19.2 42.666667 42.666666 42.666666s42.666667-19.2 42.666667-42.666666v-85.333334h85.333333c23.466667 0 42.666667-19.2 42.666667-42.666666s-19.2-42.666667-42.666667-42.666667h-85.333333v-64h85.333333z" fill="#999999" p-id="7620"></path></svg>